<?xml version="1.0" standalone="no"?>
<!DOCTYPE svg PUBLIC "-//W3C//DTD SVG 20010904//EN"
 "http://www.w3.org/TR/2001/REC-SVG-20010904/DTD/svg10.dtd">
<svg version="1.0" xmlns="http://www.w3.org/2000/svg"
 width="16.000000pt" height="16.000000pt" viewBox="0 0 16.000000 16.000000"
 preserveAspectRatio="xMidYMid meet">
<metadata>
Created by potrace 1.11, written by Peter Selinger 2001-2013
</metadata>
<g transform="translate(0.000000,16.000000) scale(0.001163,-0.001163)"
fill="#000000" stroke="none">
<path d="M3222 9660 c-78 -28 -138 -65 -169 -107 l-28 -36 1 -176 c0 -97 2
-201 4 -231 2 -30 1 -68 -3 -83 -3 -16 -1 -40 4 -55 6 -15 12 -43 14 -64 6
-51 22 -73 75 -102 42 -23 56 -25 136 -22 108 4 173 27 259 94 108 84 121 116
87 216 -38 113 -42 142 -46 343 -2 134 -4 143 -28 175 -50 65 -195 88 -306 48z"/>
<path d="M10768 9225 c-2 -1 -25 -5 -53 -8 -62 -7 -154 -39 -214 -74 -56 -32
-281 -256 -281 -279 0 -2 -5 -10 -10 -17 -48 -55 -224 -389 -212 -402 3 -3 0
-5 -6 -5 -7 0 -12 -4 -12 -9 0 -5 -17 -45 -37 -88 -20 -43 -37 -80 -38 -83 -2
-8 -103 -217 -200 -413 -54 -109 -97 -185 -111 -194 -36 -23 -66 -79 -66 -121
0 -27 -20 -77 -75 -182 -42 -80 -80 -151 -85 -157 -6 -7 -7 -13 -4 -13 4 0 -3
-14 -16 -32 -12 -18 -23 -39 -25 -47 -1 -8 -5 -17 -10 -20 -4 -3 -15 -19 -23
-36 -8 -16 -29 -53 -47 -82 -18 -29 -33 -57 -33 -63 0 -5 -4 -10 -10 -10 -5 0
-11 26 -11 58 -1 60 -4 109 -14 232 -3 41 -8 111 -10 155 -2 44 -5 80 -5 80
-2 0 -6 49 -15 175 -4 52 -9 104 -11 115 -2 18 -12 139 -19 255 -2 25 -5 77
-9 115 -3 39 -8 104 -11 145 -3 41 -8 98 -11 125 -2 28 -6 84 -9 125 -3 41 -7
104 -9 140 -6 85 -15 259 -21 390 -3 58 -7 114 -9 125 -3 11 -5 24 -5 28 -1 4
-21 17 -46 28 -36 16 -59 19 -122 15 -43 -3 -94 -10 -113 -16 -19 -6 -43 -13
-53 -15 -27 -6 -97 -49 -129 -78 -48 -44 -56 -73 -52 -182 4 -135 13 -307 18
-380 3 -33 8 -103 11 -155 7 -112 11 -161 19 -255 14 -165 18 -200 22 -207 3
-5 0 -8 -6 -8 -6 0 -8 -5 -4 -11 3 -6 8 -32 10 -58 2 -25 6 -71 9 -101 3 -30
8 -89 10 -130 3 -41 7 -95 10 -120 5 -41 10 -108 20 -260 2 -30 6 -82 9 -115
2 -33 7 -109 11 -170 3 -60 8 -141 11 -180 10 -177 17 -397 12 -434 0 -3 1 -8
2 -11 10 -23 4 -101 -11 -129 -14 -27 -15 -37 -6 -52 7 -11 14 -19 17 -19 10
0 -1 -436 -15 -597 -7 -79 -10 -106 -20 -151 -7 -28 -3 -36 28 -65 39 -38 42
-38 147 -42 153 -4 321 65 352 144 5 14 11 53 14 86 3 33 7 84 9 113 8 98 17
345 19 517 l2 171 39 43 c42 45 80 89 93 106 4 6 40 53 80 105 40 52 76 100
80 105 16 21 160 243 203 313 24 39 46 72 50 72 9 0 153 -304 194 -410 20 -52
41 -104 45 -115 5 -11 27 -76 51 -145 23 -69 45 -130 50 -136 5 -6 10 -19 12
-30 2 -10 10 -35 19 -54 8 -19 28 -64 43 -100 15 -36 33 -78 40 -95 80 -181
157 -373 195 -485 12 -36 26 -74 30 -85 4 -11 13 -34 20 -51 32 -85 170 -128
302 -94 43 12 141 62 163 84 6 6 19 23 29 37 51 80 43 117 -111 504 -31 77
-66 163 -79 190 -12 28 -31 73 -42 100 -11 28 -28 68 -38 90 -10 22 -18 42
-19 45 0 3 -3 10 -6 15 -4 6 -39 98 -79 205 -73 200 -120 316 -173 430 -31 68
-244 497 -255 515 -4 6 -7 12 -7 15 0 3 -18 39 -39 81 l-37 76 87 169 c47 93
97 189 110 214 53 104 204 420 229 480 50 119 144 317 178 375 50 84 71 109
170 206 93 92 104 117 63 145 -20 13 -128 28 -138 19z"/>
<path d="M5058 9045 c-2 -2 -28 -5 -58 -9 -81 -8 -139 -16 -195 -27 -27 -5
-61 -11 -74 -14 -13 -2 -49 -12 -80 -21 -31 -10 -63 -19 -72 -20 -35 -7 -185
-76 -253 -115 -88 -53 -202 -167 -238 -240 -47 -96 -58 -150 -54 -277 4 -110
9 -176 21 -247 14 -91 18 -151 20 -360 4 -281 7 -300 62 -413 48 -98 167 -177
303 -199 59 -10 308 -9 440 1 318 26 428 5 530 -98 65 -65 113 -184 126 -311
8 -75 8 -297 1 -520 -6 -166 -5 -180 28 -305 40 -155 54 -308 32 -358 -43
-104 -145 -150 -367 -166 -41 -3 -114 -8 -161 -12 -152 -11 -230 19 -274 107
-45 87 -48 253 -9 459 11 57 14 231 4 249 -15 28 -60 40 -142 36 -78 -3 -90
-5 -177 -31 -76 -22 -130 -51 -168 -90 l-33 -33 2 -113 c1 -62 -2 -165 -7
-228 -15 -206 -11 -310 16 -376 7 -16 13 -32 13 -36 1 -3 14 -24 30 -45 31
-41 100 -89 144 -99 15 -4 32 -9 37 -13 38 -22 348 -33 505 -17 208 20 412 65
610 133 79 27 195 76 211 90 8 7 18 13 22 13 20 0 151 96 200 145 25 26 56 73
58 90 0 2 6 24 13 47 17 60 13 140 -13 263 -6 28 -13 64 -16 80 -3 17 -9 41
-12 55 -7 30 -11 541 -4 554 9 20 -4 214 -19 281 -7 28 -14 61 -16 74 -7 36
-59 145 -92 193 -68 99 -143 155 -258 194 -72 24 -94 27 -234 28 -85 0 -209
-4 -275 -8 -295 -22 -422 -3 -498 76 -22 23 -64 112 -72 153 -10 56 -15 130
-20 320 -3 105 -7 206 -9 225 -2 19 -7 69 -10 110 -4 41 -9 95 -12 120 -16
131 -5 237 30 315 57 124 119 153 341 159 116 3 266 -15 330 -38 156 -58 223
-157 194 -284 -18 -82 97 -103 308 -58 12 3 31 10 42 16 12 6 21 8 21 5 0 -8
60 24 99 52 18 14 40 41 48 61 18 44 20 156 3 207 -14 43 -14 43 -64 101 -58
67 -203 133 -327 149 -30 4 -61 10 -69 15 -14 7 -455 12 -462 5z"/>
<path d="M6689 9025 c-2 -2 -20 -6 -39 -9 -83 -14 -108 -21 -185 -57 -104 -48
-103 -47 -100 -354 3 -245 8 -366 20 -530 5 -66 13 -182 19 -285 26 -402 26
-851 0 -1175 -8 -101 -9 -581 -1 -640 4 -27 9 -66 12 -85 3 -19 7 -57 11 -85
3 -27 8 -57 10 -65 3 -8 8 -33 10 -55 3 -22 8 -51 10 -65 18 -96 23 -222 11
-283 -14 -69 1 -81 101 -83 190 -4 385 66 415 149 30 84 27 267 -8 472 -8 44
-17 98 -20 120 -3 22 -8 48 -11 57 -5 16 -6 28 -20 163 -12 119 -8 396 10 628
2 20 5 40 8 43 6 5 79 11 253 19 127 6 358 5 435 -1 36 -3 77 -7 93 -7 15 -1
28 -4 28 -7 6 -24 13 -98 24 -265 3 -49 8 -106 10 -125 3 -35 16 -176 20 -240
15 -192 19 -311 20 -520 0 -203 -3 -254 -17 -300 -25 -82 -29 -115 -17 -147
45 -119 291 -134 437 -26 41 30 55 49 72 93 28 77 50 180 57 269 7 84 6 356
-1 466 -10 139 -17 231 -21 275 -3 25 -7 78 -10 118 -3 40 -8 92 -10 115 -4
41 -7 70 -20 242 -3 44 -8 105 -10 135 -3 30 -7 110 -9 176 -6 133 -14 287
-22 374 -2 30 -6 87 -9 125 -3 39 -7 88 -9 110 -2 22 -7 76 -10 120 -4 44 -9
98 -11 120 -2 22 -7 85 -11 140 -3 55 -8 118 -9 140 -2 22 -6 128 -10 235 -3
107 -9 204 -12 215 -20 71 -99 116 -201 116 -37 0 -76 -3 -87 -5 -95 -23 -180
-71 -214 -123 -22 -34 -23 -45 -21 -167 1 -143 4 -210 15 -361 3 -55 8 -129
11 -165 2 -36 6 -90 8 -120 3 -30 8 -86 11 -125 3 -38 8 -97 10 -130 2 -33 7
-87 10 -120 3 -33 7 -96 10 -140 2 -44 7 -114 10 -155 l6 -76 -98 -1 c-98 -1
-235 -7 -413 -18 -52 -3 -136 -8 -186 -10 l-90 -5 0 193 c0 186 -9 454 -19
567 -3 30 -8 96 -10 145 -3 50 -8 122 -10 160 -14 202 -17 273 -21 530 -3 165
-9 284 -15 290 -9 9 -182 19 -190 10z"/>
<path d="M12676 8943 c-1 -1 -24 -4 -51 -7 -132 -14 -152 -16 -174 -21 -12 -2
-42 -7 -65 -9 -22 -3 -66 -10 -96 -16 -30 -6 -66 -13 -80 -16 -149 -28 -380
-104 -495 -161 -246 -123 -423 -345 -491 -618 -4 -16 -8 -32 -9 -35 -1 -3 -5
-27 -10 -55 -4 -27 -9 -59 -11 -70 -21 -104 -20 -433 1 -595 10 -74 17 -145
30 -275 3 -33 8 -80 11 -105 18 -149 27 -492 26 -1098 0 -634 -16 -568 137
-559 120 8 207 29 293 70 108 51 101 -9 95 783 -3 373 -7 699 -9 724 l-3 44
45 14 c68 21 313 19 413 -3 159 -34 379 -39 537 -11 14 3 42 7 64 10 21 4 42
9 47 12 10 6 10 14 14 -181 6 -284 23 -743 31 -820 2 -27 6 -124 8 -214 4
-173 -11 -269 -48 -310 -23 -26 -20 -58 6 -64 38 -10 263 1 263 13 0 2 13 5
52 14 42 9 135 60 165 90 27 28 58 76 65 101 27 100 31 137 28 278 -2 84 -6
184 -10 222 -8 91 -14 265 -21 606 l-5 276 48 12 c69 17 133 42 133 52 0 5 5
9 10 9 38 0 103 81 105 130 4 84 -74 133 -218 135 l-89 1 -4 90 c-2 49 -5 157
-8 239 -18 482 -35 798 -51 925 -26 214 -137 344 -330 386 -26 6 -343 12 -349
7z m11 -236 c43 -22 103 -80 103 -99 0 -3 8 -23 17 -44 9 -22 18 -48 19 -59 1
-11 5 -40 9 -65 4 -25 9 -178 10 -340 2 -273 8 -425 20 -574 3 -32 7 -100 10
-150 3 -50 7 -101 9 -113 3 -12 -2 -27 -9 -33 -16 -13 -244 -16 -405 -6 -52 3
-171 9 -264 11 -93 3 -173 8 -178 11 -4 3 -8 2 -8 -3 0 -4 -19 -8 -42 -8 -52
-1 -156 -12 -191 -20 -14 -4 -27 -3 -30 2 -2 4 -8 46 -11 93 -4 47 -9 108 -12
135 -14 152 -17 208 -18 395 -1 216 5 282 34 390 7 25 13 50 15 55 1 6 7 23
13 38 7 16 12 31 12 34 0 3 14 33 31 67 58 114 141 203 226 243 53 24 74 28
198 38 39 3 77 8 85 10 8 2 38 7 65 11 28 3 52 8 54 10 2 2 45 2 95 1 76 -2
99 -7 143 -30z"/>
<path d="M2270 8904 c-122 -21 -187 -51 -257 -119 -57 -55 -63 -65 -63 -102 0
-23 4 -44 9 -48 6 -3 8 -13 6 -23 -2 -9 -11 -53 -20 -97 -52 -253 -171 -682
-287 -1032 -34 -104 -63 -190 -63 -193 -1 -3 -6 -16 -12 -30 -6 -14 -19 -52
-31 -85 -11 -33 -30 -81 -41 -108 -11 -26 -20 -48 -20 -50 2 -11 -44 -128 -52
-133 -14 -8 -175 327 -264 551 -48 121 -91 229 -95 240 -5 11 -43 106 -84 212
-96 243 -211 512 -286 668 -32 67 -64 143 -71 169 -16 66 -52 96 -129 113 -45
10 -145 9 -159 -2 -8 -5 -16 -9 -18 -7 -18 16 -145 -44 -181 -86 -24 -27 -68
-117 -77 -156 -33 -141 -38 -173 -38 -286 0 -112 5 -197 17 -270 2 -14 7 -52
11 -85 3 -33 8 -71 11 -85 2 -14 7 -63 10 -110 3 -47 7 -105 9 -130 4 -48 14
-371 20 -640 4 -199 13 -439 20 -575 7 -116 12 -250 21 -495 11 -325 11 -345
-1 -360 -16 -22 -31 -63 -30 -80 1 -8 3 -26 4 -40 2 -30 71 -107 126 -140 35
-22 51 -25 130 -24 103 1 195 32 252 84 57 52 64 77 63 223 -1 202 -19 736
-35 1039 -18 336 -24 679 -14 672 5 -3 9 -10 9 -16 0 -11 64 -173 100 -253 10
-22 18 -42 18 -45 0 -5 126 -252 215 -420 44 -85 120 -266 132 -315 1 -5 5
-17 8 -25 11 -28 55 -175 62 -207 4 -21 3 -33 -4 -33 -13 0 -25 -63 -17 -92 9
-37 79 -70 153 -73 86 -4 171 17 271 67 121 61 168 121 152 192 -6 28 -2 55
21 125 15 48 30 99 33 112 3 13 18 87 35 164 16 77 32 154 34 170 7 42 53 214
67 250 7 17 13 37 15 45 5 25 74 209 84 228 9 14 11 10 12 -18 0 -19 2 -51 4
-70 19 -219 21 -322 17 -1110 -2 -247 -1 -258 43 -480 3 -14 8 -45 10 -70 3
-25 8 -52 11 -61 2 -9 -7 -33 -22 -54 -36 -54 -35 -98 5 -135 17 -17 36 -30
43 -31 7 0 22 -2 33 -5 35 -7 109 -7 149 0 153 26 268 120 301 245 13 51 13
192 0 251 -3 14 -12 59 -20 100 -8 41 -17 86 -20 100 -25 113 -24 342 0 695 5
76 5 365 0 425 -3 25 -7 81 -10 125 -3 44 -7 100 -10 125 -2 25 -7 83 -11 130
-3 47 -8 110 -10 140 -17 218 -18 529 -1 762 1 20 -1 34 -5 32 -5 -3 -4 5 0
18 4 13 7 41 6 63 -4 82 -14 201 -19 225 -3 14 -8 39 -10 55 -3 17 -12 53 -21
82 -13 48 -13 87 2 136 21 69 -83 99 -246 71z"/>
<path d="M3390 8439 c-19 -5 -51 -11 -70 -15 -60 -10 -157 -54 -196 -88 -35
-31 -38 -36 -35 -84 1 -28 4 -61 7 -74 13 -63 17 -234 15 -673 -1 -290 0 -308
40 -550 11 -66 22 -133 25 -150 2 -16 6 -41 9 -55 2 -14 7 -43 10 -65 3 -23 8
-52 11 -65 4 -14 8 -189 9 -390 2 -333 7 -443 20 -511 3 -13 8 -40 11 -59 3
-19 8 -38 10 -42 8 -12 18 -122 18 -184 0 -42 -8 -75 -24 -109 -21 -44 -22
-49 -6 -60 19 -15 186 -17 231 -3 17 5 41 10 55 12 32 5 122 41 158 63 71 43
110 117 114 213 2 40 -11 180 -17 191 -3 3 -7 24 -10 45 -11 76 -15 99 -20
129 -5 28 -8 157 -19 705 -3 113 -8 216 -11 230 -4 14 -8 36 -9 50 -1 14 -6
41 -9 60 -8 43 -17 88 -21 115 -2 11 -7 36 -10 55 -37 198 -40 252 -38 535 1
138 2 273 1 300 -1 28 -1 56 0 63 2 26 2 40 -3 132 -10 202 -19 260 -41 276
-18 14 -157 16 -205 3z"/>
<path d="M3096 4563 c-1 -2 -126 -5 -277 -8 -272 -6 -315 -7 -664 -20 -260
-11 -245 -9 -375 -30 -39 -6 -83 -14 -110 -20 -14 -3 -45 -8 -70 -11 -25 -3
-142 -25 -260 -50 -118 -24 -224 -46 -235 -48 -11 -2 -20 -4 -20 -5 0 -2 -7
-4 -15 -6 -8 -1 -51 -13 -95 -24 -44 -12 -91 -24 -105 -27 -14 -3 -59 -14
-100 -25 -79 -21 -99 -26 -140 -34 -14 -3 -36 -7 -50 -10 -58 -12 -155 -27
-187 -28 -7 0 -13 -4 -13 -8 0 -6 77 -19 205 -35 22 -2 175 -6 340 -9 277 -3
559 -12 680 -20 265 -18 327 -20 490 -11 198 10 491 19 642 20 79 1 143 3 143
6 0 7 1307 3 1560 -4 107 -3 287 -8 400 -11 233 -6 484 -13 675 -20 72 -3 225
-7 340 -10 116 -3 273 -7 350 -10 551 -16 943 -20 1820 -20 875 0 1118 3 1565
21 136 5 303 13 390 18 70 5 116 7 385 22 55 3 141 7 190 10 50 3 245 7 435 9
317 4 414 8 510 20 19 2 64 7 100 10 82 7 133 13 188 20 24 3 69 8 101 11 32
2 68 7 82 10 13 2 51 7 84 10 33 3 71 7 85 10 14 2 39 7 55 9 17 3 41 7 55 10
14 3 45 8 70 11 25 3 52 7 60 9 150 27 247 37 394 39 115 1 119 2 121 23 1 12
-2 28 -7 35 -5 9 -8 6 -8 -9 0 -26 -7 -28 -46 -13 -35 14 -168 47 -219 55 -79
13 -91 15 -145 20 -30 3 -71 8 -90 11 -19 3 -60 7 -90 9 -58 5 -158 14 -200
20 -63 7 -149 17 -190 20 -25 3 -63 7 -85 11 -22 4 -51 8 -65 9 -49 5 -146 16
-175 20 -118 17 -188 20 -490 18 -304 -1 -463 -5 -690 -17 -127 -7 -289 -17
-375 -22 -174 -10 -323 -17 -645 -29 -77 -3 -245 -7 -373 -10 -128 -2 -237 -7
-242 -10 -6 -3 -10 -2 -10 4 0 6 -6 8 -14 5 -23 -9 -207 -10 -213 -1 -3 4 -10
4 -16 -1 -7 -5 -252 -7 -552 -6 -297 1 -562 3 -590 3 -27 0 -54 0 -60 0 -5 0
-133 3 -284 5 -150 3 -380 8 -510 11 -130 3 -310 8 -401 10 -191 5 -591 17
-995 29 -295 10 -538 16 -753 20 -112 3 -206 7 -209 10 -3 2 -15 1 -28 -4 -13
-5 -26 -6 -29 -3 -6 6 -994 11 -1000 6z"/>
</g>
</svg>
