<svg xmlns="http://www.w3.org/2000/svg" viewBox="0 0.00005 298 345.09711"><path fill="#DEDEDE" d="M264.568 102.055l5.355-5.355c7.718-7.717 9.124-18.938 3.126-24.935-5.997-5.997-17.217-4.59-24.934 3.127l-5.386 5.385c-20.961-16.985-46.62-28.402-74.729-31.98v-9.583h7.658c10.914 0 19.843-8.711 19.843-19.357S186.573 0 175.659 0h-53.317C111.429 0 102.5 8.711 102.5 19.357s8.93 19.357 19.842 19.357H130v9.583C56.681 57.629 0 120.244 0 196.097c0 82.291 66.709 149 149 149 82.29 0 149-66.709 149-149 0-35.663-12.535-68.394-33.432-94.042zM149 306.265c-60.844 0-110.167-49.324-110.167-110.168C38.833 135.253 88.156 85.93 149 85.93c60.843 0 110.167 49.323 110.167 110.167S209.843 306.264 149 306.264z"/><path fill="#D22856" d="M149 319.234c-67.68 0-122.742-55.062-122.742-122.742S81.32 73.75 149 73.75s122.742 55.062 122.742 122.742S216.681 319.234 149 319.234zm0-231.601c-60.025 0-108.859 48.834-108.859 108.859 0 60.025 48.834 108.86 108.859 108.86 60.025 0 108.86-48.835 108.86-108.86S209.025 87.632 149 87.632z"/><path fill="#D22856" d="M104.143 218.566l11.015-10.37c7.344-6.719 12.47-11.895 15.381-15.528 2.91-3.633 5.058-7.178 6.445-10.635 1.387-3.457 2.08-7.157 2.08-11.103 0-4.531-1.133-8.555-3.398-12.07-2.266-3.516-5.45-6.25-9.55-8.204-4.102-1.953-8.83-2.93-14.18-2.93-4.064 0-7.735.401-11.016 1.202-3.281.8-6.309 1.943-9.082 3.427-2.774 1.485-6.27 4.024-10.488 7.618l9.843 11.66c3.399-2.813 6.66-4.98 9.786-6.504 3.124-1.524 6.347-2.285 9.668-2.285 3.164 0 5.692.84 7.587 2.52 1.895 1.68 2.842 4.238 2.842 7.675 0 2.305-.43 4.532-1.289 6.68-.86 2.148-2.266 4.482-4.219 7.002-1.953 2.52-6.113 7.041-12.48 13.564l-21.504 21.738v12.598h59.883v-15.234h-37.324v-.82zm97.441-15.761v-53.848h-16.7l-37.558 55.312v12.598h36.563v17.754h17.695v-17.754h10.312v-14.062h-10.312zm-17.402-25.079c-.196 4.61-.293 8.126-.293 10.547v14.532h-20.625l15.703-23.73a65.427 65.427 0 0 0 5.215-9.376h.468c-.117.743-.273 3.419-.468 8.027z"/></svg>