<svg xmlns="http://www.w3.org/2000/svg" viewBox="-0.0002 0.00001 17.9882 13.9653"><path fill="#D22856" d="M14.914 1.814C16.11.816 15.816 0 14.257 0H3.73c-1.56 0-1.854.816-.657 1.814l3.742 3.118c1.197.998 3.158.998 4.355 0l3.743-3.118z"/><path fill="#D22856" d="M11.913 7.044a205.444 205.444 0 0 1-2.218 1.835l-.02.014a1.01 1.01 0 0 1-.235.136c-.033.014-.066.034-.1.048-.11.034-.223.058-.335.058l-.01.002h-.002l-.01-.002a1.2 1.2 0 0 1-.335-.058c-.034-.014-.068-.034-.1-.048a1.052 1.052 0 0 1-.235-.136l-.02-.014c-.022-.011-1.02-.838-2.218-1.835L2.178 3.796C.98 2.798 0 3.256 0 4.816v6.315a2.842 2.842 0 0 0 2.835 2.834h12.318a2.842 2.842 0 0 0 2.835-2.834V4.816c0-1.56-.98-2.018-2.178-1.02l-3.897 3.248z"/></svg>