<svg xmlns="http://www.w3.org/2000/svg" viewBox="-0.00021 0.0002 19.6972 19.6954"><path fill="#D22856" d="M9.848 0C6.34 0 2.823.628 1.546 1.878.488 2.918.134 4.752.016 5.913c0 0-.016.115-.016.165 0 .454.369.82.82.82.053 0 2.027-.161 3.217-.26a.408.408 0 0 0 .086-.016.821.821 0 0 0 .8-.819l.004-1.617c0-.5.407-.902.907-.902h8.027c.5 0 .907.402.907.902l.003 1.617a.82.82 0 0 0 .802.82.485.485 0 0 0 .085.017c1.19.098 3.164.259 3.217.259a.822.822 0 0 0 .822-.82c0-.05-.018-.165-.018-.165-.118-1.16-.472-2.995-1.53-4.035C16.873.63 13.356 0 9.85 0zm0 10.67a1.64 1.64 0 1 0 0 3.281 1.64 1.64 0 1 0 0-3.28zM8.616 6.975V5.95a1.025 1.025 0 0 0-2.049 0v1.024L1.03 12.888c-.382.376-.62.894-.62 1.47v1.646c0 .907.735 1.643 1.642 1.643h.41v1.023a1.025 1.025 0 0 0 2.051 0v-1.023h10.67v1.023a1.025 1.025 0 1 0 2.05 0v-1.023h.411c.905 0 1.64-.735 1.64-1.643v-1.646c0-.576-.236-1.094-.618-1.47L13.13 6.975V5.95a1.025 1.025 0 1 0-2.051 0v1.024H8.616zm1.232 2.053a3.28 3.28 0 0 1 3.282 3.282 3.28 3.28 0 0 1-3.282 3.282 3.28 3.28 0 0 1-3.28-3.282 3.28 3.28 0 0 1 3.28-3.282z"/></svg>