<?xml version="1.0" encoding="utf-8"?>
<!-- Generator: Adobe Illustrator 18.0.0, SVG Export Plug-In . SVG Version: 6.00 Build 0)  -->
<!DOCTYPE svg PUBLIC "-//W3C//DTD SVG 1.1//EN" "http://www.w3.org/Graphics/SVG/1.1/DTD/svg11.dtd">
<svg version="1.1" id="Layer_1" xmlns="http://www.w3.org/2000/svg" xmlns:xlink="http://www.w3.org/1999/xlink" x="0px" y="0px"
	 viewBox="0 0 31.92 31.92" enable-background="new 0 0 31.92 31.92" xml:space="preserve">
<path d="M15.96,4c6.595,0,11.96,5.365,11.96,11.96s-5.365,11.96-11.96,11.96S4,22.555,4,15.96S9.365,4,15.96,4
	 M15.96,0C7.146,0,0,7.145,0,15.96c0,8.813,7.146,15.96,15.96,15.96s15.96-7.147,15.96-15.96C31.92,7.145,24.774,0,15.96,0L15.96,0z
	"/>
<path d="M15.96,24.291c4.706,0,8.52-3.813,8.52-8.52c0-4.705-3.813-8.519-8.52-8.519"/>
</svg>
