<?xml version="1.0" encoding="utf-8"?>
<!-- Generator: Adobe Illustrator 18.0.0, SVG Export Plug-In . SVG Version: 6.00 Build 0)  -->
<!DOCTYPE svg PUBLIC "-//W3C//DTD SVG 1.1//EN" "http://www.w3.org/Graphics/SVG/1.1/DTD/svg11.dtd">
<svg version="1.1" id="Layer_1" xmlns="http://www.w3.org/2000/svg" xmlns:xlink="http://www.w3.org/1999/xlink" x="0px" y="0px"
	 viewBox="0 0 12.545 11.99" enable-background="new 0 0 12.545 11.99" xml:space="preserve">
<g>
	<path d="M6.23496,11.99c-0.21198,0-0.41199-0.091-0.552-0.24899C1.88499,7.417,1.03898,6.443,0.82499,6.16901L0.82096,6.172
		C0.29197,5.49701-0.00002,4.654-0.00002,3.79902C-0.00002,1.70401,1.70396,0,3.79899,0C4.73301,0,5.60301,0.32001,6.283,0.89802
		C6.97898,0.32001,7.843,0,8.74601,0c2.09497,0,3.79901,1.70401,3.79901,3.79901c0,0.909-0.31799,1.754-0.896,2.38101
		l-4.85999,5.561C6.64793,11.89899,6.44694,11.99,6.23496,11.99L6.23496,11.99z M1.98997,5.284
		c0.20801,0.255,2.47101,2.83899,4.24298,4.858l4.323-4.944c0.34003-0.36899,0.52002-0.85999,0.52002-1.39899
		c0-1.285-1.04498-2.33099-2.33002-2.33099c-0.729,0-1.42102,0.34399-1.90002,0.94299C6.7039,2.58902,6.4929,2.67801,6.2609,2.68601
		C6.03391,2.68302,5.82188,2.57502,5.68589,2.392C5.24491,1.805,4.55686,1.46702,3.79887,1.46702
		c-1.28497,0-2.33002,1.04599-2.33002,2.33099c0,0.67801,0.27502,1.17099,0.50702,1.46701
		C1.97996,5.271,1.98594,5.27701,1.98997,5.284z"/>
</g>
</svg>
