<?xml version="1.0" encoding="utf-8"?>
<!-- Generator: Adobe Illustrator 18.0.0, SVG Export Plug-In . SVG Version: 6.00 Build 0)  -->
<!DOCTYPE svg PUBLIC "-//W3C//DTD SVG 1.1//EN" "http://www.w3.org/Graphics/SVG/1.1/DTD/svg11.dtd">
<svg version="1.1" id="Layer_1" xmlns="http://www.w3.org/2000/svg" xmlns:xlink="http://www.w3.org/1999/xlink" x="0px" y="0px"
	 viewBox="0 0 53.47059 53.47059" enable-background="new 0 0 53.47059 53.47059" xml:space="preserve">
<g>
	<path class="icon-facebook__symbol" fill="#070606" d="M28.67404,20.6201c0.7998,0,1.5986,0,2.3974,0c0-1.1192,0-2.2373,0-3.3565c-0.9589,0-1.9199,0-2.8769,0
		c-3.1392,0.1807-4.2554,2.3867-3.8472,6.1153h-1.9482v3.5166h1.958c0,3.1035,0,6.208,0,9.3115c1.2788,0,2.5581,0,3.8374,0
		c0-3.1035,0-6.208,0-9.3115h2.8564v-3.5166h-2.8662C28.16424,22.33299,28.14964,20.9726,28.67404,20.6201z"/>
	<circle class="icon-facebook__circle" fill="none" stroke="#070606" stroke-width="2.97059" stroke-miterlimit="10" cx="26.7353" cy="26.73529" r="25.25"/>
</g>
</svg>
