<?xml version="1.0" encoding="utf-8"?>
<!-- Generator: Adobe Illustrator 18.0.0, SVG Export Plug-In . SVG Version: 6.00 Build 0)  -->
<!DOCTYPE svg PUBLIC "-//W3C//DTD SVG 1.1//EN" "http://www.w3.org/Graphics/SVG/1.1/DTD/svg11.dtd">
<svg version="1.1" id="Layer_1" xmlns="http://www.w3.org/2000/svg" xmlns:xlink="http://www.w3.org/1999/xlink" x="0px" y="0px"
	 viewBox="0 0 53.47059 53.47059" enable-background="new 0 0 53.47059 53.47059" xml:space="preserve">
<g>
	<circle class="icon-twitter__circle" fill="none" stroke="#070606" stroke-width="2.97059" stroke-miterlimit="10" cx="26.7353" cy="26.73529" r="25.25"/>
	<g id="W6EeEF_1_">
		<g>
			<path class="icon-twitter__symbol" fill="#070606" d="M30.11889,19.84021c1.7363-0.4849,3.0742,0.2632,3.6846,1.1514c0.6943-0.2261,1.372-0.4703,2.0722-0.6915
				c-0.0039,0.8414-0.538,1.4781-0.8828,1.7271c0.7041,0.166,1.3428-0.48,1.3428-0.48c-0.1748,0.9761-1.0352,1.7461-1.6113,1.9771
				c-0.2383,6.5923-3.2715,10.9555-10.3819,10.8227c-0.538,0,0.0772,0-0.4599,0c-0.4219,0-4.2901-0.4492-5.0469-1.8427
				c2.3408,0.1923,4.0107-0.4122,4.835-1.1495c-0.9888-0.2929-2.7608-0.4648-3.0699-2.8808
				c0.3619,0.1045,0.583,0.2226,1.2281,0.1162c-1.2364-0.8359-2.6084-1.5366-2.5323-3.6851
				c0.294,0.3203,1.1001,0.5235,1.3809,0.4615c-0.7246-0.2354-2.0298-3.2813-0.9209-4.8365
				c1.873,1.8111,3.8481,3.5215,7.3691,3.6851C27.34159,21.97541,28.29659,20.47451,30.11889,19.84021z"/>
		</g>
	</g>
</g>
</svg>
