<svg class="logo-pink-mobile" xmlns="http://www.w3.org/2000/svg" xmlns:xlink="http://www.w3.org/1999/xlink" x="0px" y="0px"
	 viewBox="0 0 30 9.21372" enable-background="new 0 0 30 9.21372" xml:space="preserve">
   <style>

    .logo-pink-mobile {
      display: none;
     }

    @media only screen and (max-width: 699px) {
      .logo-pink-mobile {
        display: block;
      }
    }
  </style>
   <g class="logo-pink-mobile__letters" fill="#FFF">
       <path d="M0 .584C0 .3.234.064.506.064H3.4c2.05 0 3.4 1.09 3.4 2.882v.026c0 1.959-1.635 2.972-3.568 2.972H1.025v2.75a.52.52 0 0 1-.519.52A.518.518 0 0 1 0 8.695V.585zM3.27 5.01c1.506 0 2.492-.805 2.492-1.999v-.026c0-1.298-.973-1.973-2.44-1.973H1.025V5.01H3.27zM8.758.52c0-.286.234-.52.506-.52a.52.52 0 0 1 .52.52v8.175a.52.52 0 0 1-.52.52.518.518 0 0 1-.506-.52V.519zM12.443.532c0-.272.233-.506.506-.506h.143c.234 0 .376.117.52.298l5.515 7.034V.506c0-.272.22-.506.506-.506.272 0 .493.234.493.506v8.202c0 .273-.194.48-.467.48h-.052c-.22 0-.376-.13-.532-.31l-5.633-7.204v7.034c0 .272-.22.506-.506.506a.504.504 0 0 1-.493-.506V.532zM22.693.52c0-.286.234-.52.507-.52a.52.52 0 0 1 .519.52v4.97L28.897.182c.116-.104.233-.182.402-.182.273 0 .494.247.494.506 0 .143-.065.26-.17.363l-3.218 3.193 3.453 4.257c.09.117.142.22.142.376a.53.53 0 0 1-.519.52.49.49 0 0 1-.415-.234L25.68 4.763l-1.96 1.96v1.972a.52.52 0 0 1-.518.52.518.518 0 0 1-.507-.52V.52z"/>
   </g>
</svg>
