<svg class="logo-pink-desktop" xmlns="http://www.w3.org/2000/svg" xmlns:xlink="http://www.w3.org/1999/xlink" x="0px" y="0px"
  viewBox="0 0 146.30029 40.375" enable-background="new 0 0 146.30029 40.375" xml:space="preserve">
   <style>

    .logo-pink-desktop {
      display: none;
     }

    @media only screen and (min-width: 1200px) {
      .logo-pink-desktop {
        display: block;
      }
    }

  </style>
  <g class="logo-pink-desktop__letters" fill="#FFF">
   <path d="M71.874 18.661c0-.708.58-1.288 1.256-1.288h7.18c5.087 0 8.436 2.704 8.436 7.146v.064c0 4.86-4.057 7.373-8.854 7.373h-5.474v6.825c0 .708-.58 1.287-1.29 1.287-.675 0-1.255-.58-1.255-1.287v-20.12h.001zm8.114 10.98c3.734 0 6.181-1.996 6.181-4.96v-.062c0-3.22-2.414-4.894-6.052-4.894h-5.7v9.918h5.57v-.002zM93.603 18.5c0-.708.58-1.288 1.255-1.288.709 0 1.288.58 1.288 1.288v20.283c0 .708-.58 1.287-1.288 1.287-.676 0-1.255-.579-1.255-1.287V18.5zM102.744 18.532c0-.676.58-1.256 1.256-1.256h.354c.58 0 .935.29 1.288.74l13.684 17.45V18.468c0-.676.547-1.256 1.256-1.256.675 0 1.224.58 1.224 1.256v20.348c0 .677-.48 1.19-1.158 1.19h-.129c-.548 0-.935-.32-1.318-.772l-13.976-17.867v17.45c0 .676-.547 1.256-1.257 1.256-.675 0-1.222-.58-1.222-1.257V18.532h-.002zM128.173 18.5c0-.708.58-1.288 1.257-1.288.708 0 1.286.58 1.286 1.288v12.331l12.848-13.168c.29-.257.58-.451.998-.451.676 0 1.225.612 1.225 1.256 0 .354-.163.644-.42.901l-7.985 7.92 8.565 10.56c.224.292.353.547.353.936 0 .676-.577 1.288-1.285 1.288-.482 0-.807-.259-1.03-.58l-8.402-10.464-4.863 4.862v4.894a1.29 1.29 0 0 1-1.286 1.288c-.677 0-1.257-.58-1.257-1.288V18.5h-.004z"
     />
   </g>
   <path class="logo-pink-desktop__spark" fill="#D22856" d="M98.498 9.875a3.623 3.623 0 0 1-3.623-3.624 3.625 3.625 0 0 1-3.625 3.624 3.625 3.625 0 0 1 3.625 3.624 3.623 3.623 0 0 1 3.623-3.624z" />
   <g class="logo-pink-desktop__glasses" fill="#FFF">
     <path d="M43.094 19.313c.246 0 .489.014.73.033a2.492 2.492 0 0 0-2.136-1.221 1.993 1.993 0 0 1-1.884-1.354c-.727.208-1.425.482-2.09.816.063.017.123.038.189.038a2 2 0 0 1 2 2c0 .096-.015.188-.028.281 1-.382 2.084-.593 3.219-.593z" />
     <path d="M60.462 28.016L55.287 6.65C54.926 4.303 52.694 0 46.688 0a1.5 1.5 0 1 0 0 3c4.856 0 5.575 3.729 5.64 4.143l4.766 19.7H55.02c-.445-3.556-2.453-6.627-5.305-8.521a2.504 2.504 0 0 0-1.529 2.303c0 .088-.015.17-.026.256a9.036 9.036 0 0 1 3.83 5.965c.08.488.134.987.134 1.5 0 .511-.053 1.011-.135 1.5-.716 4.271-4.421 7.53-8.896 7.53-4.475 0-8.18-3.259-8.896-7.53a9.041 9.041 0 0 1-.135-1.5c0-.513.053-1.012.135-1.5a8.957 8.957 0 0 1 .808-2.485 1.994 1.994 0 0 1-1.852-1.984.737.737 0 0 0-.192-.488 11.951 11.951 0 0 0-1.795 4.957h-1.82c-.741-5.927-5.802-10.531-11.927-10.531S6.235 20.917 5.493 26.844H3.42l4.767-19.7C8.25 6.728 8.97 3 13.827 3a1.5 1.5 0 1 0 0-3c-6.007 0-8.24 4.303-8.6 6.65L.052 28.017c-.266 1.109.531 1.826 1.426 1.826.012 0 .023.004.036.004h3.982c.08.629.215 1.237.387 1.83a.725.725 0 0 0 .102-.353 2 2 0 0 1 2-2c.166 0 .324.025.478.063a8.326 8.326 0 0 1-.074-1.042c0-.512.053-1.011.135-1.5.715-4.27 4.42-7.531 8.896-7.531s8.18 3.26 8.896 7.53c.082.49.135.989.135 1.5a9.04 9.04 0 0 1-.135 1.5c-.715 4.273-4.421 7.532-8.896 7.532a8.958 8.958 0 0 1-5.386-1.794c-.35.302-.8.491-1.3.491a.75.75 0 0 0-.748.748c0 .29-.065.564-.176.812a11.939 11.939 0 0 0 7.614 2.743c6.125 0 11.185-4.604 11.927-10.53h1.814c.742 5.927 5.802 10.53 11.927 10.53s11.186-4.604 11.927-10.53H59c.012 0 .023-.004.036-.004.895 0 1.692-.716 1.426-1.825z"
       />
     </g>
     <path class="logo-pink-desktop__sparks" fill="#D22856" d="M50.686 16.125a4.499 4.499 0 0 1-4.499-4.499 4.499 4.499 0 0 1-4.499 4.499 4.499 4.499 0 0 1 4.499 4.499 4.498 4.498 0 0 1 4.499-4.499zM37.904 19.626a2.748 2.748 0 0 1-2.75-2.749 2.748 2.748 0 0 1-2.748 2.749 2.748 2.748 0 0 1 2.749 2.749 2.749 2.749 0 0 1 2.749-2.749zM10.734 34.072a2.748 2.748 0 0 1-2.75-2.75c0 1.52-1.23 2.75-2.748 2.75 1.519 0 2.749 1.229 2.749 2.748a2.748 2.748 0 0 1 2.749-2.748z"
       />
     </svg>
