<?xml version="1.0" encoding="utf-8"?>
<!-- Generator: Adobe Illustrator 18.0.0, SVG Export Plug-In . SVG Version: 6.00 Build 0)  -->
<!DOCTYPE svg PUBLIC "-//W3C//DTD SVG 1.1//EN" "http://www.w3.org/Graphics/SVG/1.1/DTD/svg11.dtd">
<svg version="1.1" xmlns="http://www.w3.org/2000/svg" xmlns:xlink="http://www.w3.org/1999/xlink" x="0px" y="0px"
	 viewBox="0 0.00005 298 345.09711" enable-background="new 0 0.00005 298 345.09711" xml:space="preserve">
<g id="bg">
	<path fill="#DEDEDE" d="M264.56839,102.05515l5.35449-5.3549c7.71771-7.7173,9.12402-18.938,3.12592-24.9351
		c-5.99701-5.9971-17.2168-4.5903-24.93361,3.1269l-5.38669,5.3848c-20.96091-16.9848-46.61911-28.4018-74.7285-31.98v-9.583h7.6582
		c10.91409,0,19.8428-8.7109,19.8428-19.3569s-8.92781-19.3569-19.84181-19.3569h-53.3174
		c-10.9126,0-19.8418,8.7109-19.8418,19.3569s8.9292,19.3569,19.8418,19.3569H130v9.583C56.6812,57.62894,0,120.24414,0,196.09714
		c0,82.29105,66.709,149,149,149c82.28999,0,149-66.70895,149-149C298,160.43404,285.46478,127.70314,264.56839,102.05515z
		 M149,306.26413c-60.8437,0-110.16699-49.32318-110.16699-110.16699C38.83301,135.25294,88.1563,85.93015,149,85.93015
		c60.84279,0,110.16699,49.3228,110.16699,110.16699C259.16699,256.94095,209.84279,306.26413,149,306.26413z"/>
</g>
<g id="circle">
	<path fill="#D22856" d="M149.00002,319.23401c-67.68018,0-122.74171-55.06152-122.74171-122.74216
		c0-67.68019,55.06153-122.74172,122.74171-122.74172c67.68065,0,122.74217,55.06153,122.74217,122.74172
		C271.74219,264.17249,216.68066,319.23401,149.00002,319.23401z M149.00002,87.63278
		c-60.02484,0-108.85906,48.83421-108.85906,108.85907c0,60.0253,48.83422,108.85953,108.85906,108.85953
		c60.0253,0,108.85951-48.83423,108.85951-108.85953C257.85953,136.467,209.02531,87.63278,149.00002,87.63278z"/>
</g>
<g id="type">
	<g>
		<g>
			<path fill="#D22856" d="M104.1427,218.56635l11.01556-10.37109c7.34351-6.71808,12.4704-11.89453,15.38092-15.5274
				c2.90948-3.63281,5.05829-7.17767,6.44531-10.6347c1.38611-3.45697,2.08008-7.15759,2.08008-11.10352
				c0-4.53101-1.13348-8.55469-3.3985-12.07025c-2.26587-3.51575-5.44916-6.24945-9.55078-8.20325
				c-4.1015-1.95276-8.82843-2.92969-14.17963-2.92969c-4.06317,0-7.73438,0.401-11.01569,1.20123
				c-3.28119,0.80109-6.3089,1.94366-9.08197,3.4278c-2.77405,1.48486-6.26953,4.02368-10.48834,7.61707l9.84381,11.66022
				c3.39844-2.8125,6.65948-4.98053,9.7851-6.50391c3.12469-1.52338,6.34741-2.28522,9.66803-2.28522
				c3.16406,0,5.69269,0.84052,7.58789,2.51959c1.89417,1.68005,2.8418,4.23895,2.8418,7.67572
				c0,2.3053-0.4303,4.53192-1.28912,6.67969c-0.85968,2.1488-2.26587,4.48254-4.21869,7.00201
				c-1.9538,2.51953-6.11389,7.04132-12.48047,13.56439l-21.50391,21.73828v12.59772h59.88281v-15.23438H104.1427V218.56635z
				 M201.58398,202.80463v-53.84766h-16.69922l-37.55859,55.3125v12.59766h36.5625v17.75391h17.69531v-17.75391h10.3125v-14.0625
				H201.58398z M184.1817,177.72644c-0.19592,4.60968-0.29303,8.12531-0.29303,10.54688v14.53131h-20.625l15.70325-23.73047
				c2.03058-3.04694,3.76917-6.17163,5.21478-9.375h0.46869C184.53326,170.44165,184.37671,173.11774,184.1817,177.72644z"/>
		</g>
	</g>
</g>
</svg>
